<svg viewBox="0 0 64 64" xml:space="preserve" xmlns="http://www.w3.org/2000/svg" enable-background="new 0 0 64 64"><path d="M-194-382.7c-6.2 0-11.3-5.1-11.3-11.3s5.1-11.3 11.3-11.3 11.3 5.1 11.3 11.3-5.1 11.3-11.3 11.3zm0-20.2c-4.9 0-8.9 4-8.9 8.9s4 8.9 8.9 8.9 8.9-4 8.9-8.9-4-8.9-8.9-8.9z" transform="translate(226 426)" fill="#585858" class="fill-134563"></path><path d="M-190.6-370.1h-6.8l-1.9-5.8c-1.3-.4-2.5-.9-3.7-1.5l-5.5 2.8-4.8-4.8 2.8-5.5c-.6-1.2-1.2-2.4-1.5-3.7l-5.8-1.9v-6.8l5.8-1.9c.4-1.3.9-2.5 1.5-3.7l-2.8-5.5 4.8-4.8 5.5 2.8c1.2-.6 2.4-1.2 3.7-1.5l1.9-5.8h6.8l1.9 5.8c1.3.4 2.5.9 3.7 1.5l5.5-2.8 4.8 4.8-2.8 5.5c.6 1.2 1.2 2.4 1.5 3.7l5.8 1.9v6.8l-5.8 1.9c-.4 1.3-.9 2.5-1.5 3.7l2.8 5.5-4.8 4.8-5.5-2.8c-1.2.6-2.4 1.2-3.7 1.5l-1.9 5.8zm-5.1-2.3h3.4l1.8-5.4.6-.2c1.5-.4 2.9-1 4.3-1.8l.6-.3 5.1 2.6 2.4-2.4-2.6-5.1.3-.6c.8-1.3 1.4-2.8 1.8-4.3l.2-.6 5.4-1.8v-3.4l-5.4-1.8-.2-.6c-.4-1.5-1-3-1.8-4.3l-.3-.6 2.6-5.1-2.4-2.4-5.1 2.6-.6-.3c-1.3-.8-2.8-1.4-4.3-1.8l-.6-.2-1.8-5.4h-3.4l-1.8 5.4-.6.2c-1.5.4-2.9 1-4.3 1.8l-.6.3-5.1-2.6-2.4 2.4 2.6 5.1-.3.6c-.8 1.3-1.4 2.8-1.8 4.3l-.2.6-5.4 1.8v3.4l5.4 1.8.2.6c.4 1.5 1 3 1.8 4.3l.3.6-2.6 5.1 2.4 2.4 5.1-2.6.6.3c1.3.8 2.8 1.4 4.3 1.8l.6.2 1.8 5.4z" transform="translate(226 426)" fill="#585858" class="fill-134563"></path></svg>